<?xml version="1.0" encoding="UTF-8" standalone="no"?>
<svg
   xmlns:dc="http://purl.org/dc/elements/1.1/"
   xmlns:cc="http://creativecommons.org/ns#"
   xmlns:rdf="http://www.w3.org/1999/02/22-rdf-syntax-ns#"
   xmlns:svg="http://www.w3.org/2000/svg"
   xmlns="http://www.w3.org/2000/svg"
   viewBox="0 0 856.47998 125.22667"
   height="125.22667"
   width="856.47998"
   xml:space="preserve"
   id="svg2"
   version="1.1"><metadata
     id="metadata8"><rdf:RDF><cc:Work
         rdf:about=""><dc:format>image/svg+xml</dc:format><dc:type
           rdf:resource="http://purl.org/dc/dcmitype/StillImage" /></cc:Work></rdf:RDF></metadata><defs
     id="defs6" /><g
     transform="matrix(1.3333333,0,0,-1.3333333,0,125.22667)"
     id="g10"><g
       transform="scale(0.1)"
       id="g12"><path
         id="path14"
         style="fill:#58586f;fill-opacity:1;fill-rule:nonzero;stroke:none"
         d="m 1142.05,760.199 c 0,29.832 24.69,54.528 54.52,54.528 29.82,0 54.51,-24.696 54.51,-54.528 v -86.418 h 46.3 c 25.72,0 46.29,-20.562 46.29,-46.289 0,-25.711 -20.57,-46.289 -46.29,-46.289 h -46.3 V 332.266 c 0,-23.664 20.58,-37.032 39.1,-37.032 26.74,0 48.35,-21.613 48.35,-48.339 0,-26.77 -21.61,-48.36 -48.35,-48.36 -91.55,0 -148.13,58.633 -148.13,139.903 v 242.765 h -23.66 c -25.72,0 -46.29,20.578 -46.29,46.289 0,25.727 20.57,46.289 46.29,46.289 h 23.66 v 86.418" /><path
         id="path16"
         style="fill:#58586f;fill-opacity:1;fill-rule:nonzero;stroke:none"
         d="m 1698.58,378.563 v 28.8 h -120.35 c -45.27,0 -69.95,-21.613 -69.95,-58.644 0,-39.09 27.76,-62.742 85.38,-62.742 54.52,0 104.92,34.968 104.92,92.586 M 1502.1,550.352 c -10.28,-7.2 -18.51,-10.293 -30.85,-10.293 -26.75,0 -48.35,21.593 -48.35,48.347 0,11.321 4.11,23.664 13.36,33.949 28.81,31.887 80.25,65.836 168.71,65.836 127.55,0 203.69,-62.753 203.69,-171.796 v -263.34 c 0,-29.832 -24.7,-54.52 -54.53,-54.52 -29.83,0 -54.53,24.688 -54.53,54.52 -27.76,-44.239 -73.03,-59.668 -134.74,-59.668 -100.82,0 -167.68,62.754 -167.68,155.332 0,95.676 77.15,145.058 166.64,145.058 h 134.76 v 18.508 c 0,46.289 -33.94,77.153 -93.61,77.153 -45.26,0 -77.15,-20.579 -102.87,-39.086" /><path
         id="path18"
         style="fill:#58586f;fill-opacity:1;fill-rule:nonzero;stroke:none"
         d="M 2175.4,220.125 2022.12,425.867 1989.2,400.164 V 252.031 c 0,-30.859 -24.68,-53.496 -55.55,-53.496 -31.89,0 -55.55,22.637 -55.55,53.496 v 633.676 c 0,30.856 23.66,53.484 55.55,53.484 30.87,0 55.55,-22.628 55.55,-53.484 V 522.578 l 186.2,146.063 c 13.36,10.297 23.66,13.375 36.01,13.375 29.82,0 53.48,-23.653 53.48,-53.489 0,-15.433 -7.2,-31.886 -20.57,-42.175 L 2109.56,483.477 2260.78,284.941 c 8.23,-11.32 11.31,-22.617 11.31,-32.91 0,-29.836 -23.65,-53.496 -53.49,-53.496 -19.54,0 -33.95,9.258 -43.2,21.59" /><path
         id="path20"
         style="fill:#58586f;fill-opacity:1;fill-rule:nonzero;stroke:none"
         d="m 2403.78,493.777 h 203.68 c 0,50.403 -28.8,99.774 -95.66,99.774 -59.67,0 -102.88,-33.942 -108.02,-99.774 m 108.02,194.414 c 173.84,0 205.73,-133.738 205.73,-204.714 0,-38.059 0,-82.286 -62.75,-82.286 h -254.09 c 0,-74.074 52.47,-108.019 120.36,-108.019 45.26,0 77.15,15.43 101.85,31.894 11.31,7.2 19.54,11.309 32.91,11.309 26.74,0 48.36,-21.602 48.36,-48.34 0,-16.465 -8.23,-29.851 -17.5,-38.074 -17.49,-16.457 -72,-56.574 -165.62,-56.574 -142.98,0 -231.45,77.168 -231.45,248.945 0,157.395 82.29,245.859 222.2,245.859" /><path
         id="path22"
         style="fill:#58586f;fill-opacity:1;fill-rule:nonzero;stroke:none"
         d="m 3000.45,253.055 c 94.64,0 148.13,59.668 148.13,188.242 0,128.594 -55.55,187.223 -150.2,187.223 -76.11,0 -139.9,-53.489 -139.9,-187.223 0,-132.695 61.72,-188.242 141.97,-188.242 m -139.9,396.047 V 616.18 c 19.54,34.98 70.98,72.011 139.9,72.011 133.72,0 214.99,-78.179 214.99,-246.894 0,-168.699 -81.27,-247.91 -214.99,-247.91 -68.92,0 -118.31,37.043 -139.9,72.004 V 32.918 C 2860.55,15.4375 2845.11,0 2827.63,0 c -17.49,0 -32.92,15.4375 -32.92,32.918 v 616.184 c 0,18.519 15.43,32.914 32.92,32.914 17.48,0 32.92,-14.395 32.92,-32.914" /><path
         id="path24"
         style="fill:#58586f;fill-opacity:1;fill-rule:nonzero;stroke:none"
         d="m 3590.94,384.727 v 43.211 h -145.05 c -66.85,0 -113.13,-27.782 -113.13,-87.442 0,-53.496 37.02,-87.441 117.25,-87.441 72.02,0 140.93,44.238 140.93,131.672 m -240.71,189.277 c -10.28,-11.32 -17.47,-14.391 -26.74,-14.391 -16.46,0 -29.83,13.36 -29.83,29.825 0,7.207 2.06,12.343 5.13,17.484 28.81,45.258 84.36,81.269 170.77,81.269 119.33,0 185.16,-69.949 185.16,-174.882 V 230.43 c 0,-17.481 -14.4,-31.895 -31.88,-31.895 -17.49,0 -31.9,14.414 -31.9,31.895 v 37.019 c -25.72,-48.347 -85.37,-74.062 -147.09,-74.062 -109.05,0 -177.98,52.48 -177.98,147.109 0,90.527 68.93,145.039 180.02,145.039 h 145.05 v 27.774 c 0,69.953 -46.3,113.16 -121.38,113.16 -54.53,0 -87.44,-16.457 -119.33,-52.465" /><path
         id="path26"
         style="fill:#58586f;fill-opacity:1;fill-rule:nonzero;stroke:none"
         d="m 3857.39,226.316 -171.8,408.383 c -1.02,3.094 -3.09,7.207 -3.09,14.406 0,18.516 14.41,32.915 32.92,32.915 18.52,0 26.75,-11.317 30.85,-21.606 l 145.06,-354.898 145.04,354.898 c 4.12,10.289 12.36,21.606 30.85,21.606 18.54,0 32.92,-14.399 32.92,-32.915 0,-7.199 -2.05,-11.312 -3.06,-14.406 L 3894.4,152.246 C 3852.23,51.4336 3799.79,0 3702.05,0 c -17.48,0 -30.87,13.3672 -30.87,30.8594 0,17.4883 13.39,30.8672 30.87,30.8672 89.5,0 113.15,60.6834 155.34,164.5894" /><path
         id="path28"
         style="fill:#58586f;fill-opacity:1;fill-rule:nonzero;stroke:none"
         d="M 4850.09,506.121 V 231.453 c 0,-18.515 -14.39,-32.918 -32.93,-32.918 -18.49,0 -32.92,14.403 -32.92,32.918 v 261.281 c 0,81.274 -28.8,136.829 -128.57,136.829 -88.46,0 -128.59,-47.329 -128.59,-123.442 V 231.453 c 0,-18.515 -14.41,-32.918 -32.91,-32.918 -18.53,0 -32.92,14.403 -32.92,32.918 v 261.281 c 0,81.274 -25.72,136.829 -126.54,136.829 -95.66,0 -126.52,-57.61 -126.52,-144.028 V 231.453 c 0,-18.515 -14.4,-32.918 -32.92,-32.918 -18.52,0 -32.93,14.403 -32.93,32.918 v 417.649 c 0,18.515 14.41,32.914 32.93,32.914 18.52,0 32.92,-14.399 32.92,-32.914 V 616.18 c 17.47,38.062 66.86,72.011 133.73,72.011 84.34,0 138.86,-30.863 163.54,-72.011 25.74,40.117 71,72.011 150.21,72.011 158.43,0 194.42,-94.636 194.42,-182.07" /><path
         id="path30"
         style="fill:#58586f;fill-opacity:1;fill-rule:nonzero;stroke:none"
         d="m 5113.47,628.523 c -89.48,0 -138.86,-57.597 -145.04,-149.168 h 276.71 c 0,74.071 -25.71,149.168 -131.67,149.168 m 0,59.668 c 164.6,0 196.49,-130.648 196.49,-200.593 0,-29.836 0,-65.84 -41.15,-65.84 h -300.38 c 0,-101.836 58.63,-167.668 155.33,-167.668 59.66,0 94.65,22.629 123.44,44.219 6.17,4.121 10.3,6.183 18.52,6.183 16.45,0 29.84,-13.379 29.84,-29.836 0,-11.316 -5.14,-17.488 -11.32,-23.652 -15.43,-15.438 -68.92,-57.606 -160.48,-57.606 -136.82,0 -222.19,75.086 -222.19,247.911 0,158.41 78.18,246.882 211.9,246.882" /><path
         id="path32"
         style="fill:#58586f;fill-opacity:1;fill-rule:nonzero;stroke:none"
         d="M 5762.6,506.121 V 231.453 c 0,-18.515 -14.4,-32.918 -32.93,-32.918 -18.49,0 -32.92,14.403 -32.92,32.918 v 261.281 c 0,81.274 -23.64,136.829 -123.43,136.829 -101.83,0 -136.82,-61.723 -136.82,-144.028 V 231.453 c 0,-18.515 -14.39,-32.918 -32.91,-32.918 -18.51,0 -32.92,14.403 -32.92,32.918 v 417.649 c 0,18.515 14.41,32.914 32.92,32.914 18.52,0 32.91,-14.399 32.91,-32.914 V 616.18 c 19.56,39.097 69.95,72.011 136.82,72.011 158.42,0 189.28,-94.636 189.28,-182.07" /><path
         id="path34"
         style="fill:#58586f;fill-opacity:1;fill-rule:nonzero;stroke:none"
         d="m 5865.51,781.805 c 0,17.484 15.41,32.922 32.92,32.922 18.5,0 32.91,-15.438 32.91,-32.922 V 673.789 h 66.87 c 17.48,0 30.85,-13.375 30.85,-30.859 0,-17.489 -13.37,-30.867 -30.85,-30.867 h -66.87 V 328.152 c 0,-44.226 24.69,-67.898 59.66,-67.898 17.48,0 31.9,-13.371 31.9,-30.859 0,-17.493 -14.42,-30.86 -31.9,-30.86 -81.27,0 -125.49,54.512 -125.49,129.617 v 283.911 h -40.12 c -17.48,0 -30.86,13.378 -30.86,30.867 0,17.484 13.38,30.859 30.86,30.859 h 40.12 v 108.016" /><path
         id="path36"
         style="fill:#58586f;fill-opacity:1;fill-rule:nonzero;stroke:none"
         d="m 6153,562.688 c 0,-108.012 270.55,-67.883 270.55,-232.473 0,-93.625 -77.14,-135.793 -174.86,-135.793 -84.36,0 -149.16,40.117 -175.92,74.062 -5.13,7.2 -7.2,12.344 -7.2,19.551 0,16.465 13.37,29.824 29.84,29.824 6.18,0 14.4,-2.05 22.63,-10.293 31.9,-31.882 73.03,-50.398 130.65,-50.398 58.62,0 109.04,19.551 109.04,73.047 0,105.957 -270.57,63.769 -270.57,232.473 0,85.382 69.98,124.472 157.41,124.472 69.95,0 124.47,-23.656 156.36,-65.832 3.09,-4.113 7.19,-10.289 7.19,-19.547 0,-16.465 -13.37,-29.824 -29.82,-29.824 -5.15,0 -13.38,1.02 -21.61,9.246 -27.78,26.754 -58.63,43.211 -112.12,43.211 -46.28,0 -91.57,-14.406 -91.57,-61.726" /><path
         id="path38"
         style="fill:#c80c7d;fill-opacity:1;fill-rule:nonzero;stroke:none"
         d="m 161.168,441.875 c -9.824,-9.316 -10.234,-24.836 -0.918,-34.668 60.137,-63.418 163.133,-101.387 275.508,-101.574 0.238,0 0.465,0 0.707,0 104.277,0 208.461,38.625 272.019,100.879 9.68,9.472 9.84,25.011 0.364,34.679 -9.477,9.676 -25.008,9.832 -34.672,0.36 -54.742,-53.621 -145.77,-86.883 -237.699,-86.883 -0.211,0 -0.43,0 -0.641,0 -97.727,0.164 -189.684,33.223 -239.996,86.289 -9.317,9.813 -24.832,10.242 -34.672,0.918" /><path
         id="path40"
         style="fill:#c80c7d;fill-opacity:1;fill-rule:nonzero;stroke:none"
         d="m 832.766,658.676 c -0.293,-0.125 -0.614,-0.121 -0.903,-0.285 -12.246,-6.762 -28.465,-13.075 -47.894,-18.86 v 97.93 c 0,23.234 -18.906,42.148 -42.145,42.148 H 126.793 c -23.238,0 -42.1485,-18.914 -42.1485,-42.148 v -82.477 c 0,-0.011 -0.0039,-0.019 -0.0039,-0.035 v -15.101 c -19.0429,5.726 -34.9492,11.961 -46.9922,18.64 v 84.598 c 0,46.941 38.1875,85.137 85.1286,85.137 h 624.856 c 46.941,0 85.133,-38.196 85.133,-85.137 z m -729.801,30.992 v 47.793 c 0,13.137 10.687,23.828 23.828,23.828 h 615.031 c 13.141,0 23.828,-10.691 23.828,-23.828 V 689.66 c -6.785,4.676 -14.984,7.442 -23.828,7.442 H 126.793 c -8.848,0 -17.047,-2.762 -23.828,-7.434 z m 23.828,-10.887 h 615.031 c 13.141,0 23.828,-10.687 23.828,-23.832 v -18.777 c 0,-0.008 0,-0.012 0,-0.012 v -1.683 C 686.559,614.242 565.27,601.754 434.84,601.754 c -131.067,0 -252.828,12.594 -331.875,32.992 v 20.238 c 0.019,13.125 10.695,23.797 23.828,23.797 z M 832.766,322.977 c 0,-46.942 -38.192,-85.137 -85.133,-85.137 H 122.777 c -46.9411,0 -85.1286,38.195 -85.1286,85.137 V 635.395 C 108.004,602.254 261.156,581.133 434.84,581.133 c 174.207,0 327.894,21.273 397.926,54.601 z M 747.633,865.863 H 122.777 C 55.0781,865.863 0,810.785 0,743.086 V 322.977 C 0,255.281 55.0781,200.195 122.777,200.195 h 624.856 c 67.699,0 122.777,55.086 122.777,122.782 v 420.109 c 0,67.699 -55.078,122.777 -122.777,122.777" /></g></g></svg>
