<?xml version="1.0" encoding="UTF-8" standalone="no"?>
<svg
   viewBox="0 0 116.05466 88.75573"
   height="88.75573"
   width="116.05466"
   xml:space="preserve"
   id="svg2"
   version="1.1"
   sodipodi:docname="tp_logo.svg"
   inkscape:version="1.1.2 (b8e25be833, 2022-02-05)"
   xmlns:inkscape="http://www.inkscape.org/namespaces/inkscape"
   xmlns:sodipodi="http://sodipodi.sourceforge.net/DTD/sodipodi-0.dtd"
   xmlns="http://www.w3.org/2000/svg"
   xmlns:svg="http://www.w3.org/2000/svg"
   xmlns:rdf="http://www.w3.org/1999/02/22-rdf-syntax-ns#"
   xmlns:cc="http://creativecommons.org/ns#"
   xmlns:dc="http://purl.org/dc/elements/1.1/"><sodipodi:namedview
     id="namedview21"
     pagecolor="#ffffff"
     bordercolor="#666666"
     borderopacity="1.0"
     inkscape:pageshadow="2"
     inkscape:pageopacity="0.0"
     inkscape:pagecheckerboard="0"
     showgrid="false"
     inkscape:zoom="1.2352887"
     inkscape:cx="393.02555"
     inkscape:cy="52.61928"
     inkscape:window-width="2560"
     inkscape:window-height="1377"
     inkscape:window-x="-8"
     inkscape:window-y="-8"
     inkscape:window-maximized="1"
     inkscape:current-layer="g12" /><metadata
     id="metadata8"><rdf:RDF><cc:Work
         rdf:about=""><dc:format>image/svg+xml</dc:format><dc:type
           rdf:resource="http://purl.org/dc/dcmitype/StillImage" /></cc:Work></rdf:RDF></metadata><defs
     id="defs6" /><g
     transform="matrix(1.3333333,0,0,-1.3333333,0,115.4484)"
     id="g10"><g
       transform="scale(0.1)"
       id="g12"><g
         id="g1640"><path
           id="path38"
           style="fill:#c80c7d;fill-opacity:1;fill-rule:nonzero;stroke:none"
           d="m 161.168,441.875 c -9.824,-9.316 -10.234,-24.836 -0.918,-34.668 60.137,-63.418 163.133,-101.387 275.508,-101.574 0.238,0 0.465,0 0.707,0 104.277,0 208.461,38.625 272.019,100.879 9.68,9.472 9.84,25.011 0.364,34.679 -9.477,9.676 -25.008,9.832 -34.672,0.36 -54.742,-53.621 -145.77,-86.883 -237.699,-86.883 -0.211,0 -0.43,0 -0.641,0 -97.727,0.164 -189.684,33.223 -239.996,86.289 -9.317,9.813 -24.832,10.242 -34.672,0.918" /><path
           id="path40"
           style="fill:#c80c7d;fill-opacity:1;fill-rule:nonzero;stroke:none"
           d="m 832.766,658.676 c -0.293,-0.125 -0.614,-0.121 -0.903,-0.285 -12.246,-6.762 -28.465,-13.075 -47.894,-18.86 v 97.93 c 0,23.234 -18.906,42.148 -42.145,42.148 H 126.793 c -23.238,0 -42.1485,-18.914 -42.1485,-42.148 v -82.477 c 0,-0.011 -0.0039,-0.019 -0.0039,-0.035 v -15.101 c -19.0429,5.726 -34.9492,11.961 -46.9922,18.64 v 84.598 c 0,46.941 38.1875,85.137 85.1286,85.137 h 624.856 c 46.941,0 85.133,-38.196 85.133,-85.137 z m -729.801,30.992 v 47.793 c 0,13.137 10.687,23.828 23.828,23.828 h 615.031 c 13.141,0 23.828,-10.691 23.828,-23.828 V 689.66 c -6.785,4.676 -14.984,7.442 -23.828,7.442 H 126.793 c -8.848,0 -17.047,-2.762 -23.828,-7.434 z m 23.828,-10.887 h 615.031 c 13.141,0 23.828,-10.687 23.828,-23.832 v -18.777 c 0,-0.008 0,-0.012 0,-0.012 v -1.683 C 686.559,614.242 565.27,601.754 434.84,601.754 c -131.067,0 -252.828,12.594 -331.875,32.992 v 20.238 c 0.019,13.125 10.695,23.797 23.828,23.797 z M 832.766,322.977 c 0,-46.942 -38.192,-85.137 -85.133,-85.137 H 122.777 c -46.9411,0 -85.1286,38.195 -85.1286,85.137 V 635.395 C 108.004,602.254 261.156,581.133 434.84,581.133 c 174.207,0 327.894,21.273 397.926,54.601 z M 747.633,865.863 H 122.777 C 55.0781,865.863 0,810.785 0,743.086 V 322.977 C 0,255.281 55.0781,200.195 122.777,200.195 h 624.856 c 67.699,0 122.777,55.086 122.777,122.782 v 420.109 c 0,67.699 -55.078,122.777 -122.777,122.777" /></g></g></g></svg>
